<svg width="1440" height="791" viewBox="0 0 1440 791" fill="none" xmlns="http://www.w3.org/2000/svg">
<rect width="1440" height="791" fill="#41BA8B"/>
<path d="M265.977 561C268.966 582.203 287.939 627.545 339.91 639.286" stroke="white" stroke-width="4" stroke-dasharray="7 7"/>
<path d="M1103.87 258.548C1097.8 238.013 1072.38 195.944 1019.25 191.952" stroke="white" stroke-width="4" stroke-dasharray="7 7"/>
<path d="M665.848 132.302C656.597 138.232 643.559 137.54 635.095 130.466C626.838 123.572 623.568 111.169 627.486 101.113C628.483 98.5478 630.145 96.02 632.551 94.5835C634.466 93.4392 637.021 93.2854 638.764 94.8264C641.64 97.3811 641.462 102.667 638.934 105.387C635.078 109.536 628.252 108.915 623.443 107.091C618.901 105.324 614.888 102.421 611.789 98.6598C605.538 91.1816 602.611 80.7336 604.93 71.1786C605.211 70.0169 605.57 68.8757 606.006 67.7629C606.396 66.778 604.929 65.9943 604.54 66.9847C600.593 77.0245 602.619 88.6729 608.748 97.4069C611.776 101.802 615.88 105.346 620.67 107.702C625.866 110.185 632.608 111.401 637.849 108.338C638.921 107.733 639.86 106.917 640.609 105.94C641.358 104.963 641.902 103.844 642.208 102.652C642.775 100.464 642.59 98.1493 641.684 96.079C641.263 95.0824 640.606 94.2031 639.77 93.5169C638.934 92.8307 637.943 92.3583 636.884 92.1405C633.862 91.606 631.068 93.1587 629.087 95.3405C625.119 99.721 623.88 106.314 624.27 112.057C624.651 117.928 626.822 123.541 630.492 128.14C638.085 137.481 651.785 140.479 662.793 135.775C664.162 135.193 665.479 134.498 666.732 133.697C666.909 133.575 667.031 133.389 667.073 133.178C667.115 132.968 667.073 132.749 666.957 132.568C666.841 132.388 666.66 132.259 666.451 132.21C666.242 132.16 666.022 132.193 665.837 132.303L665.848 132.302Z" fill="white"/>
<path d="M1305.79 168.37L1301.42 192.193C1299.31 203.714 1303.57 215.491 1312.57 223.014L1331.46 238.779L1307.82 234.688C1296.65 232.767 1285.27 236.784 1277.83 245.316L1261.06 264.47L1265.55 238.697C1267.66 226.582 1262.73 214.296 1252.84 206.981L1235.36 194.05L1259.65 198.41C1271.25 200.479 1283.07 196.129 1290.55 186.99L1305.79 168.37Z" fill="#F6E4E4" stroke="#1B1B1B" stroke-width="0.99" stroke-miterlimit="10"/>
</svg>
