<svg width="433" height="447" viewBox="0 0 433 447" fill="none" xmlns="http://www.w3.org/2000/svg">
<path d="M231.174 15.0574C163.008 22.751 149.359 92.5558 151.604 129.459C81.5828 135.382 88.0674 193.55 104.229 223.18C96.7546 231.678 97.5993 252.963 98.9559 262.543C65.5034 260.074 53.3413 284.179 58.1747 309.032C43.4868 317.485 34.8127 331.491 32.3116 337.438C12.3712 396.148 69.9906 414.815 101.293 416.81L388.041 416.723C450.835 384.21 425.619 331.477 405.161 309.175C401.512 266.035 379.318 269.278 362.933 269.298C365.421 263.844 364.694 249.759 364.02 243.398C408.572 189.678 363.862 144.686 335.391 147.094C336.431 89.6549 301.015 63.5656 283.177 57.7008C284.522 50.1824 282.508 35.3338 268.076 23.8852C257.862 15.7815 244.13 13.595 231.174 15.0574Z" fill="white" stroke="black"/>
<path d="M318.297 250.867C318.258 253.724 315.763 256.569 310.868 259.229C306.016 261.866 298.981 264.221 290.257 266.168C272.818 270.058 248.743 272.291 222.171 271.933C195.598 271.575 171.592 268.695 154.264 264.336C145.596 262.156 138.627 259.612 133.847 256.845C129.026 254.055 126.608 251.143 126.647 248.286C126.685 245.429 129.181 242.583 134.075 239.923C138.928 237.286 145.963 234.931 154.686 232.985C172.125 229.094 196.2 226.862 222.773 227.219C249.345 227.577 273.351 230.457 290.679 234.816C299.347 236.997 306.317 239.54 311.096 242.307C315.917 245.098 318.335 248.009 318.297 250.867Z" fill="white" stroke="black"/>
<path d="M222.963 232.825C151.069 231.369 130.832 246.217 129.7 253.823C148.052 269.312 205.837 272.508 232.436 272.17C291.635 270.767 313.45 259.718 316.957 254.369C315.582 247.794 294.857 234.281 222.963 232.825Z" fill="#9DD6FF" stroke="black"/>
<path d="M215.193 199.072L185.111 269.619C201.249 271.531 225.228 272.506 235.691 271.894L259.38 212.949L215.193 199.072Z" fill="black"/>
<path d="M237.489 99.4502C277.754 66.9589 310.264 117.054 305.299 130.992C303.65 135.394 298.605 141.484 290.144 137.184C285.748 134.949 283.305 130.256 279.938 126.653C277.426 123.966 274.1 121.667 270.1 121.042C260.545 119.549 252.67 129.719 253.034 139.383C253.58 153.869 266.508 164.34 278.202 154.586C293.509 141.821 295.136 141.684 302.153 142.319C309.171 142.954 317.299 190.606 278.355 195.129C277.859 205.412 268.295 223.427 234.004 213.218C203.137 208.62 201.701 188.095 204.842 178.407C188.995 165.41 184.606 147.347 181.309 113.215C178.672 85.9095 189.516 79.4755 195.267 79.6717C195.419 78.5918 195.681 76.9581 196.04 75.0582C197.47 67.4803 200.208 59.6222 206.525 55.1988C214.356 49.7151 221.611 53.5551 224.901 57.0921C226.435 54.0128 228.312 51.3102 230.182 49.058C234.489 43.8704 240.981 40.067 247.632 41.1773C260.208 43.2765 258.361 60.2767 251.619 67.9407C244.145 76.4382 236.895 94.0385 237.489 99.4502Z" fill="#9DD6FF" stroke="black" stroke-width="2"/>
<path d="M254.196 122.616C257.641 121.369 265.88 119.334 271.279 121.171" stroke="black" stroke-width="2"/>
<path d="M283.201 194.31C280.265 195.104 272.2 195.978 263.437 193.114" stroke="black" stroke-width="2"/>
<path d="M193.633 79.8102C195.632 79.2314 200.501 79.6391 202.49 87.6638C204.978 97.6947 196.414 107.841 203.519 124.036" stroke="black" stroke-width="2"/>
<path d="M225.856 121.736C222.2 117.266 211.054 101.452 220.009 81.6751C226.567 67.1922 231.339 60.6438 220.516 53.7759" stroke="black" stroke-width="2"/>
<path d="M237.317 97.4166C237.434 100.411 238.136 107.097 240.011 109.888" stroke="black" stroke-width="2"/>
<path d="M196.288 169.3C205.083 181.255 221.829 192.292 247.378 172.761" stroke="black" stroke-width="2"/>
<path d="M144.575 212.423C144.394 211.09 144.335 209.557 144.457 207.922C142.864 191.775 128.833 185.69 121.432 184.669C139.96 184.445 146.752 168.809 147.831 161.018C146.601 178.23 163.386 186.332 171.932 188.231C151.102 187.226 145.117 199.06 144.457 207.922C144.597 209.343 144.641 210.843 144.575 212.423Z" fill="black"/>
<path d="M331.021 225.758C330.868 224.633 330.818 223.339 330.921 221.96C329.577 208.336 317.739 203.202 311.495 202.341C327.127 202.152 332.857 188.959 333.768 182.387C332.73 196.908 346.891 203.744 354.101 205.346C336.527 204.498 331.478 214.483 330.921 221.96C331.039 223.159 331.076 224.424 331.021 225.758Z" fill="black"/>
<g filter="url(#filter0_d_207_37)">
<path d="M132.93 316.442C136.457 316.442 139.301 317.194 141.447 318.698C143.594 320.201 145.166 322.02 146.164 324.166C147.176 326.313 147.709 328.418 147.764 330.483C147.791 334.461 146.356 337.783 143.444 340.49C140.545 343.184 137.045 344.524 132.957 344.524C128.856 344.524 125.397 343.184 122.553 340.49C119.723 337.797 118.246 334.461 118.137 330.483C118.137 326.6 119.559 323.319 122.389 320.625C125.219 317.946 128.733 316.537 132.93 316.442ZM132.875 320.024C132 320.106 131.276 321.158 130.688 323.196C130.1 325.233 129.799 327.721 129.799 330.66C129.799 333.6 130.1 336.102 130.701 338.18C131.303 340.258 132.028 341.297 132.875 341.297C133.736 341.215 134.461 340.162 135.049 338.125C135.637 336.088 135.938 333.6 135.938 330.66C135.938 327.721 135.637 325.219 135.035 323.141C134.434 321.063 133.709 320.024 132.875 320.024ZM157.211 323.838C159.604 323.811 161.477 324.795 162.858 326.778C163.459 327.817 163.801 329.006 163.897 330.36C163.979 331.713 163.569 333.641 162.68 336.129C162.297 337.551 162.42 338.494 163.063 338.959C163.705 339.424 164.553 339.096 165.578 338.002C166.604 336.895 167.26 335.801 167.533 334.694C167.82 333.573 167.807 332.246 167.506 330.688C167.219 329.115 166.645 328.145 165.797 327.748C165.66 327.625 165.592 327.448 165.619 327.215C165.633 326.983 165.701 326.764 165.824 326.559C166.07 326.231 166.809 325.848 168.039 325.424C169.27 324.987 170.582 324.617 171.977 324.303C173.371 323.989 174.643 323.838 175.805 323.852C176.953 323.879 177.582 324.18 177.692 324.754C177.664 324.905 177.623 325.082 177.569 325.274C177.172 326.887 176.776 329.102 176.393 331.918C175.996 334.735 175.819 336.84 175.846 338.221C175.873 339.615 176.01 340.477 176.242 340.832C176.475 341.201 176.844 341.201 177.363 340.86C177.869 340.518 178.17 340.026 178.266 339.383C178.485 339.383 178.69 339.383 178.854 339.383C179.031 339.383 179.113 339.383 179.113 339.383C179.086 340.586 178.416 341.721 177.131 342.801C175.832 343.867 174.41 344.428 172.879 344.483C172.1 344.496 171.348 344.387 170.623 344.168C169.885 343.949 169.283 343.471 168.778 342.733C168.285 341.994 168.135 341.147 168.354 340.176C168.572 339.192 168.832 338.303 169.147 337.51C169.338 336.963 169.461 336.567 169.516 336.321C169.557 336.061 169.447 336.033 169.174 336.239C168.217 338.932 166.795 340.942 164.922 342.254C163.035 343.58 161.039 344.25 158.934 344.291C156.815 344.332 154.928 343.772 153.274 342.637C151.742 341.283 151.264 339.711 151.811 337.92C152.358 336.129 153.192 334.365 154.313 332.629C155.106 331.344 155.694 330.196 156.09 329.17C156.473 328.158 156.363 327.365 155.748 326.791C155.051 326.299 154.449 326.395 153.944 327.092C153.451 327.789 153.123 328.719 152.959 329.881C152.795 331.03 152.877 332.069 153.205 332.971L149.213 334.885C148.707 332.547 148.817 330.551 149.541 328.91C150.252 327.27 151.319 326.012 152.727 325.151C154.135 324.289 155.625 323.852 157.211 323.838ZM188.656 333.012C189.012 331.139 189.531 329.553 190.242 328.227C190.953 326.901 191.951 325.793 193.264 324.905C194.563 324.03 196.449 323.606 198.897 323.633C200.031 323.756 201.016 324.139 201.863 324.795C202.711 325.451 203.176 326.367 203.244 327.571C203.244 329.526 202.67 330.92 201.508 331.768C200.346 332.615 199.102 332.93 197.789 332.739C196.463 332.547 195.547 331.864 195.055 330.701C194.699 330.086 194.508 329.184 194.481 328.022C192.32 329.143 191.213 331.221 191.158 334.242C191.104 337.264 192.143 339.985 194.276 342.405V343.416C193.537 343.867 192.074 344.168 189.887 344.319C187.699 344.469 185.553 344.455 183.434 344.305C181.328 344.155 180.016 343.854 179.496 343.416L179.483 342.405C180.836 341.598 181.67 340.012 181.971 337.674C182.285 335.323 182.217 333.039 181.766 330.797C181.315 328.555 180.645 327.188 179.729 326.709C179.455 326.6 179.332 326.436 179.36 326.19C179.387 325.944 179.51 325.711 179.742 325.492C180.248 325.041 181.205 324.617 182.654 324.207C184.104 323.797 185.635 323.619 187.276 323.688C188.903 323.756 189.778 324.289 189.887 325.274C189.654 325.875 189.354 326.791 188.971 327.994C188.602 329.211 188.41 330.373 188.397 331.481C188.383 332.602 188.479 333.108 188.656 333.012ZM215.33 333.026L215.522 332.862L215.713 332.711C217.654 331.084 220.936 331.713 222.098 333.983C223.164 335.924 222.029 338.932 219.651 339.082C218.051 338.905 219.5 339.698 220.143 340.067C223.11 341.694 230.383 339.233 227.416 335.514C224.477 331.877 214.031 329.211 215.781 322.703C216.725 319.709 219.746 318.096 222.549 317.235C227.143 316.004 236.727 315.594 238.162 322.211C238.395 324.235 237.451 326.244 234.69 326.641C230.52 327.461 227.881 322.02 231.039 319.436C229.44 318.52 227.293 318.533 225.803 319.668C224.586 320.612 225.078 322.389 225.926 323.401C227.881 325.615 230.643 326.846 233.104 328.405C235.236 329.881 237.725 331.385 238.613 333.983C239.365 335.869 238.955 338.002 237.807 339.629C236.508 341.789 234.279 343.239 231.832 343.813C228.619 344.633 225.188 344.674 221.961 343.895C219.145 343.225 216.424 341.625 214.988 339.041C213.772 337.25 213.744 334.612 215.33 333.026ZM252.026 323.742C255.02 323.742 257.44 324.289 259.258 325.397C261.09 326.504 262.43 327.858 263.278 329.43C264.139 331.002 264.59 332.561 264.645 334.078C264.658 337.004 263.428 339.451 260.967 341.434C258.492 343.416 255.526 344.401 252.039 344.401C248.567 344.401 245.613 343.416 243.207 341.434C240.787 339.451 239.543 337.004 239.447 334.078C239.447 331.221 240.651 328.801 243.057 326.832C245.477 324.85 248.457 323.824 252.026 323.742ZM250.918 326.436C250.194 326.6 249.674 327.434 249.387 328.965C249.1 330.496 249.1 332.301 249.387 334.406C249.688 336.498 250.18 338.262 250.891 339.67C251.602 341.092 252.313 341.748 253.037 341.639C253.762 341.489 254.268 340.641 254.555 339.123C254.842 337.592 254.842 335.787 254.555 333.682C254.254 331.59 253.762 329.826 253.051 328.418C252.34 326.996 251.629 326.34 250.918 326.436ZM277.92 344.414C274.092 344.223 271.18 343.047 269.17 340.873C267.16 338.699 266.19 336.348 266.231 333.791C266.272 331.235 267.324 328.965 269.375 326.983C271.44 325 274.42 323.948 278.344 323.838C282.254 323.715 285.276 324.481 287.395 326.135C289.022 327.83 289.473 329.348 288.735 330.674C287.996 331.987 286.656 332.561 284.701 332.383C282.992 332.055 281.912 331.371 281.461 330.319C281.024 329.266 281.065 328.281 281.611 327.365C282.145 326.449 283.047 326.026 284.291 326.094C282.377 325.656 280.545 326.135 278.795 327.543C277.031 328.938 276.348 331.139 276.758 334.147C277.469 336.949 279.192 338.631 281.926 339.178C284.674 339.725 286.998 338.864 288.899 336.594C289.063 336.321 289.227 336.239 289.391 336.348C289.541 336.457 289.596 336.703 289.555 337.073C289.104 339.164 288.215 340.737 286.875 341.789C285.535 342.842 284.045 343.553 282.404 343.908C280.764 344.264 279.274 344.428 277.92 344.414ZM298.113 317.248C299.412 317.235 300.588 317.494 301.613 318.028C302.707 318.916 303.404 319.873 303.705 320.899C304.006 321.924 304.088 322.936 303.938 323.948C303.774 324.959 303.569 325.903 303.295 326.778C303.24 327.01 303.172 327.229 303.117 327.448C302.666 329.102 302.365 330.989 302.215 333.121C302.078 334.256 302.201 335.801 302.611 337.783C303.008 339.752 303.815 341.324 305.018 342.487L305.031 343.471C300.192 344.783 295.406 344.783 290.676 343.471V342.487C291.961 341.639 292.754 340.203 293.055 338.194C293.356 336.198 293.287 334.762 292.863 333.887C292.44 332.014 291.783 330.865 290.895 330.414C290.744 330.305 290.662 330.127 290.662 329.895C290.662 329.649 290.758 329.43 290.922 329.239C291.592 328.992 292.535 328.801 293.738 328.664C294.846 328.541 296.008 328.336 297.211 328.049C298.414 327.748 299.494 327.27 300.424 326.586C301.354 325.903 301.983 324.891 302.283 323.578C301.641 324.59 300.82 325.369 299.809 325.944C298.797 326.518 297.703 326.737 296.514 326.573C295.338 326.422 294.176 325.766 293.041 324.604C292.344 323.483 292.139 322.362 292.426 321.268C292.699 320.16 293.356 319.244 294.354 318.492C295.365 317.74 296.623 317.33 298.113 317.248ZM318.375 332.67C317.158 333.518 316.16 334.502 315.395 335.596C314.615 336.703 314.274 337.633 314.369 338.371C314.451 339.11 314.875 339.328 315.654 339.014C316.42 338.699 317.104 338.016 317.719 336.99C318.32 335.951 318.539 334.516 318.375 332.67ZM328.574 333.586C328.752 336.307 329.039 338.262 329.449 339.479C329.654 339.998 329.955 340.326 330.324 340.436C330.694 340.559 331.035 340.49 331.336 340.258C331.623 340.012 331.801 339.684 331.856 339.274H332.744C332.539 340.614 331.637 341.817 330.051 342.897C328.465 343.963 326.633 344.455 324.569 344.373C322.49 344.278 321.137 343.526 320.494 342.117C319.852 340.696 319.947 338.658 320.809 336.006C320.822 335.801 320.809 335.678 320.781 335.637C320.754 335.61 320.699 335.692 320.617 335.897C319.291 339.465 317.787 341.858 316.106 343.088C314.41 344.332 312.332 344.66 309.858 344.114C307.383 343.553 306.016 342.268 305.729 340.244C305.442 338.221 305.947 336.553 307.274 335.24C308.6 333.928 310.733 333.026 313.672 332.533C316.611 332.028 318.279 330.838 318.69 328.924C318.922 327.625 318.485 326.696 317.363 326.121C316.242 325.547 314.738 325.479 312.852 325.916C314.096 325.848 315.026 326.272 315.613 327.188C316.201 328.104 316.311 329.088 315.928 330.127C315.531 331.166 314.492 331.85 312.797 332.178C310.856 332.356 309.475 331.795 308.668 330.469C307.861 329.156 308.217 327.653 309.748 325.957C311.785 324.303 314.574 323.592 318.143 323.783C321.711 323.989 324.295 325 325.908 326.805C327.508 328.61 328.397 330.865 328.574 333.586ZM333.237 319.039C333.483 318.725 334.221 318.342 335.438 317.918C336.654 317.481 338.022 317.112 339.539 316.797C341.057 316.483 342.397 316.346 343.545 316.36C344.694 316.387 345.309 316.688 345.418 317.262C344.967 319.012 344.666 321.637 344.516 325.151C344.379 328.664 344.502 332.096 344.912 335.446C345.322 338.795 346.115 341.119 347.319 342.391V343.362C342.492 344.674 337.707 344.674 332.99 343.362V342.391C333.961 341.735 334.645 340.313 335.041 338.125C335.438 335.924 335.602 333.504 335.547 330.838C335.479 328.186 335.233 325.834 334.822 323.797C334.412 321.76 333.865 320.557 333.209 320.215C333.059 320.106 332.977 319.928 332.977 319.696C332.977 319.463 333.072 319.244 333.237 319.039ZM165.236 354.162C167.397 351.031 176.926 350.731 178.061 352.604C178.006 355.94 181.246 365.1 184.432 371.635C186.893 366.877 188.547 360.615 190.078 355.475C189.819 355.065 189.436 354.422 189.545 354.162C189.586 351.442 201.877 350.348 202.069 352.713C200.783 357.498 200.305 374.178 203.983 377.528V378.512C199.156 379.865 194.358 379.77 189.641 378.512L189.627 377.528C192.457 375.914 192.676 365.647 191.61 359.658C189.19 366.235 186.1 374.862 187.262 377.09C187.467 377.281 187.672 377.446 187.863 377.582V378.471C183.393 379.783 178.553 379.688 174.752 378.471V377.582C176.94 376.16 173.699 367.588 170.199 361.531C170.063 367.985 170.746 375.436 173.043 377.528V378.512C170.705 379.961 166.549 379.483 164.99 378.512L164.977 377.528C168.914 375.285 167.793 356.364 165.209 355.338C164.895 355.147 164.895 354.531 165.236 354.162ZM209.41 361.217C211.789 359.385 215.057 358.551 218.201 358.66C222.317 358.852 227.895 360.178 228.072 365.565C228.223 370.076 220.567 373.549 216.725 369.994C216.985 372.852 218.324 374.506 220.772 374.903C223.233 375.313 225.488 374.574 227.567 372.688C227.772 372.455 227.949 372.401 228.086 372.524C228.223 372.647 228.236 372.879 228.141 373.221C227.361 375.203 226.227 376.639 224.736 377.528C223.26 378.416 221.66 378.949 219.992 379.127C218.311 379.305 216.807 379.305 215.481 379.141C211.871 378.608 209.233 377.213 207.592 375.012C205.938 372.824 205.281 370.405 205.596 367.807C205.897 365.196 207.182 362.994 209.41 361.217ZM218.707 361.053C218.598 361.053 218.502 361.067 218.393 361.08C217.791 361.272 217.326 361.778 216.998 362.625C216.656 363.459 216.533 364.403 216.615 365.496C216.711 366.563 216.985 367.424 217.463 368.067C217.928 368.737 218.461 368.983 219.035 368.846C219.61 368.696 220.074 368.203 220.403 367.342C220.758 366.481 220.881 365.51 220.785 364.444C220.703 363.377 220.416 362.516 219.951 361.86C219.569 361.326 219.158 361.053 218.707 361.053ZM241.416 361.696C240.623 361.778 239.981 362.489 239.516 363.828C239.037 365.155 238.86 366.85 238.969 368.887C239.078 370.91 239.447 372.633 240.076 374.041C240.692 375.463 241.403 376.147 242.195 376.106C242.961 376.065 243.576 375.313 244.055 373.836C244.533 372.373 244.711 370.623 244.615 368.586C244.506 366.563 244.137 364.895 243.535 363.623C242.92 362.338 242.209 361.696 241.416 361.696ZM246.037 360.711C245.613 357.799 244.998 356.104 244.178 355.612C244.028 355.489 243.945 355.311 243.945 355.078C243.945 354.846 244.028 354.641 244.192 354.449C244.424 354.135 245.108 353.78 246.242 353.369C247.363 352.973 248.649 352.617 250.084 352.303C251.52 351.989 252.805 351.824 253.967 351.783C255.348 351.742 256.113 352.043 256.25 352.672C255.826 355.229 255.498 358.155 255.293 361.422C255.088 364.69 255.074 367.834 255.266 370.869C255.457 373.891 256.195 376.092 257.467 377.459L257.453 378.416C256.291 379.114 254.801 379.428 253.01 379.36C251.219 379.291 249.92 379.018 249.113 378.539C248.307 378.074 247.938 377.268 247.992 376.133C248.033 374.998 248.088 373.959 248.143 373.016C248.184 372.086 248.211 371.471 248.225 371.184C248.238 370.91 248.184 370.787 248.061 370.801C247.938 370.815 247.856 370.965 247.828 371.225C247.692 372.442 247.377 373.699 246.871 374.998C246.365 376.311 245.654 377.364 244.725 378.17C243.795 378.977 242.551 379.387 241.006 379.387C237.656 379.619 234.881 378.676 232.653 376.53C230.424 374.397 229.453 371.635 229.754 368.231C230.192 363.746 232.516 360.848 236.713 359.549C240.91 358.25 244.082 359.125 246.256 362.201C246.092 361.299 246.024 360.807 246.037 360.711ZM266.887 352.248C268.186 352.235 269.361 352.494 270.387 353.028C271.481 353.916 272.178 354.873 272.479 355.899C272.779 356.924 272.861 357.936 272.711 358.948C272.547 359.959 272.342 360.903 272.069 361.778C272.014 362.01 271.945 362.229 271.891 362.448C271.44 364.102 271.139 365.989 270.988 368.121C270.852 369.256 270.975 370.801 271.385 372.783C271.781 374.752 272.588 376.324 273.791 377.487L273.805 378.471C268.965 379.783 264.18 379.783 259.449 378.471V377.487C260.735 376.639 261.528 375.203 261.828 373.194C262.129 371.198 262.061 369.762 261.637 368.887C261.213 367.014 260.557 365.865 259.668 365.414C259.518 365.305 259.436 365.127 259.436 364.895C259.436 364.649 259.531 364.43 259.695 364.239C260.365 363.992 261.309 363.801 262.512 363.664C263.619 363.541 264.781 363.336 265.985 363.049C267.188 362.748 268.268 362.27 269.197 361.586C270.127 360.903 270.756 359.891 271.057 358.578C270.414 359.59 269.594 360.369 268.582 360.944C267.57 361.518 266.477 361.737 265.287 361.573C264.111 361.422 262.949 360.766 261.815 359.604C261.117 358.483 260.912 357.362 261.199 356.268C261.473 355.16 262.129 354.244 263.127 353.492C264.139 352.74 265.397 352.33 266.887 352.248ZM287.149 367.67C285.932 368.518 284.934 369.502 284.168 370.596C283.389 371.703 283.047 372.633 283.143 373.371C283.225 374.11 283.649 374.328 284.428 374.014C285.194 373.699 285.877 373.016 286.492 371.99C287.094 370.951 287.313 369.516 287.149 367.67ZM297.348 368.586C297.526 371.307 297.813 373.262 298.223 374.479C298.428 374.998 298.729 375.326 299.098 375.436C299.467 375.559 299.809 375.49 300.11 375.258C300.397 375.012 300.574 374.684 300.629 374.274H301.518C301.313 375.614 300.41 376.817 298.824 377.897C297.238 378.963 295.406 379.455 293.342 379.373C291.264 379.278 289.91 378.526 289.268 377.117C288.625 375.696 288.721 373.658 289.582 371.006C289.596 370.801 289.582 370.678 289.555 370.637C289.528 370.61 289.473 370.692 289.391 370.897C288.065 374.465 286.561 376.858 284.879 378.088C283.184 379.332 281.106 379.66 278.631 379.114C276.156 378.553 274.789 377.268 274.502 375.244C274.215 373.221 274.721 371.553 276.047 370.24C277.373 368.928 279.506 368.026 282.445 367.533C285.385 367.028 287.053 365.838 287.463 363.924C287.695 362.625 287.258 361.696 286.137 361.121C285.016 360.547 283.512 360.479 281.625 360.916C282.869 360.848 283.799 361.272 284.387 362.188C284.975 363.104 285.084 364.088 284.701 365.127C284.305 366.166 283.266 366.85 281.57 367.178C279.629 367.356 278.248 366.795 277.442 365.469C276.635 364.156 276.99 362.653 278.522 360.957C280.559 359.303 283.348 358.592 286.916 358.783C290.485 358.989 293.069 360 294.682 361.805C296.281 363.61 297.17 365.865 297.348 368.586Z" fill="black"/>
</g>
<defs>
<filter id="filter0_d_207_37" x="118.137" y="315.594" width="229.182" height="66.3672" filterUnits="userSpaceOnUse" color-interpolation-filters="sRGB">
<feFlood flood-opacity="0" result="BackgroundImageFix"/>
<feColorMatrix in="SourceAlpha" type="matrix" values="0 0 0 0 0 0 0 0 0 0 0 0 0 0 0 0 0 0 127 0" result="hardAlpha"/>
<feOffset dy="2"/>
<feComposite in2="hardAlpha" operator="out"/>
<feColorMatrix type="matrix" values="0 0 0 0 0.262745 0 0 0 0 0.219608 0 0 0 0 0.219608 0 0 0 1 0"/>
<feBlend mode="normal" in2="BackgroundImageFix" result="effect1_dropShadow_207_37"/>
<feBlend mode="normal" in="SourceGraphic" in2="effect1_dropShadow_207_37" result="shape"/>
</filter>
</defs>
</svg>
