<svg width="941" height="454" viewBox="0 0 941 454" fill="none" xmlns="http://www.w3.org/2000/svg">
<path d="M2.18066 6.0752C3.09473 0.895508 79.0381 1.35254 81.7803 5.00879C83.418 7.21777 83.2275 17.3867 80.79 19.8242C79.4189 20.6621 79 20.1289 78.4287 19.8242C76.1055 15.7871 62.5088 8.32227 58.5098 10.1504C53.8633 11.9404 53.7109 38.4482 55.1201 55.4727C56.3008 64.4229 58.4336 71.8496 61.9375 74.9727V77.6387C55.3486 79.4287 48.7979 80.2666 42.2852 80.2666C42.1709 80.2666 42.0566 80.2666 41.9424 80.2666C41.8281 80.2666 41.7139 80.2666 41.5996 80.2666C35.0869 80.2666 28.5361 79.4287 21.9473 77.6387V74.9727C25.4512 71.8496 27.584 64.4229 28.7646 55.4727C30.1738 38.4482 30.0215 11.9404 25.375 10.1504C20.9951 8.16992 12.0449 13.1592 5.3418 20.8525C4.61816 21.1953 3.89453 21.4238 2.94238 20.8145C0.504883 18.377 0.200195 7.29395 2.18066 6.0752ZM116.096 1.80957C117.733 1.84766 118.762 2.34277 119.181 3.29492C119.6 4.24707 119.79 5.2373 119.79 6.22754C119.79 6.37988 119.79 6.57031 119.828 6.72266C119.79 11.75 119.257 16.0537 118.229 19.5957C117.2 23.1377 116.058 26.3369 114.801 29.1172C113.43 32.1641 112.401 35.2109 111.754 38.2578C111.068 41.2666 111.221 44.7705 112.249 48.6934C112.439 39.6289 115.41 32.9639 121.123 28.6602C126.874 24.3564 133.349 22.1855 140.585 22.1475C147.821 22.1475 153.763 23.9756 158.447 27.7461C162.522 31.6309 163.817 36.0488 162.294 41C160.771 45.9512 158.523 50.8262 155.438 55.5488C153.306 59.0527 151.668 62.2139 150.602 64.9941C149.573 67.8125 149.878 69.9834 151.592 71.5449C153.534 72.916 155.172 72.6494 156.581 70.707C157.952 68.8027 158.866 66.251 159.285 63.0137C159.742 59.8145 159.514 56.958 158.638 54.4824L169.645 49.1885C171.511 58.8623 169.987 66.3271 165.188 71.583C160.352 76.8389 154.601 79.543 147.859 79.6953C141.118 79.8477 135.824 77.1436 131.978 71.583C130.302 68.7266 129.35 65.4131 129.083 61.6807C128.854 57.9482 129.997 52.6162 132.473 45.7607C133.615 42.333 133.806 39.667 133.006 37.8008C132.206 35.9346 130.911 34.792 129.159 34.373C127.407 33.9541 125.655 34.1826 123.941 35.0967C120.285 37.6104 118.381 41.3047 118.305 46.1797C118.19 51.0928 119.104 56.082 121.009 61.2236C122.875 66.3652 124.97 70.5547 127.255 73.7539C127.331 73.8301 127.407 73.9062 127.483 73.9824C127.598 74.0967 127.712 74.2109 127.826 74.3252V77.0293C122.075 78.7432 115.562 79.6572 108.326 79.7715C101.09 79.8857 94.1582 78.8955 87.5312 76.8008L87.4932 74.0586C87.4932 74.0586 87.4932 74.0586 87.5312 74.0205C88.6738 73.335 89.7783 72.3828 90.7686 71.0879C93.2061 66.2891 94.5771 59.4717 94.9199 50.6357C95.2627 41.7998 94.8438 33.5732 93.625 25.9561C92.4443 18.3008 90.7305 13.8447 88.5215 12.5498C88.1025 12.2451 87.874 11.75 87.874 11.1025C87.874 10.417 88.1406 9.8457 88.5977 9.27441C89.2451 8.43652 91.1494 7.4082 94.3105 6.26562C97.4717 5.12305 101.09 4.13281 105.127 3.25684C109.164 2.38086 112.82 1.88574 116.096 1.80957ZM191.696 4.39941C195.314 4.36133 198.59 5.08496 201.446 6.57031C204.493 9.0459 206.436 11.7119 207.273 14.5684C208.111 17.4248 208.34 20.2432 207.921 23.0615C207.464 25.8799 206.893 28.5078 206.131 30.9453C205.979 31.5928 205.788 32.2021 205.636 32.8115C204.379 37.4199 203.541 42.6758 203.122 48.6172C202.741 51.7783 203.084 56.082 204.227 61.6045C205.331 67.0889 207.578 71.4688 210.93 74.7061L210.968 77.4482C197.485 81.1045 184.155 81.1045 170.978 77.4482V74.7061C174.558 72.3447 176.767 68.3457 177.604 62.7471C178.442 57.1865 178.252 53.1875 177.071 50.75C175.891 45.5322 174.062 42.333 171.587 41.0762C171.168 40.7715 170.939 40.2764 170.939 39.6289C170.939 38.9434 171.206 38.334 171.663 37.8008C173.529 37.1152 176.157 36.582 179.509 36.2012C182.594 35.8584 185.831 35.2871 189.183 34.4873C192.534 33.6494 195.543 32.3164 198.133 30.4121C200.723 28.5078 202.475 25.6895 203.312 22.0332C201.522 24.8516 199.237 27.0225 196.419 28.6221C193.601 30.2217 190.554 30.8311 187.24 30.374C183.965 29.9551 180.728 28.127 177.566 24.8896C175.624 21.7666 175.053 18.6436 175.853 15.5967C176.614 12.5117 178.442 9.95996 181.223 7.86523C184.041 5.77051 187.545 4.62793 191.696 4.39941ZM214.929 56.4629C217.48 54.5967 220.299 53.7588 223.422 53.9111C226.545 54.1016 229.249 55.2441 231.534 57.4531C233.477 59.9287 234.848 62.0234 235.647 63.6992C236.409 65.4131 236.98 67.2412 237.323 69.2217C237.666 71.2021 238.885 71.0498 241.018 68.8408C243.188 66.6318 242.312 63.623 238.504 59.8525C235.647 57.4531 232.296 55.168 228.449 53.0352C224.945 51.0928 221.86 49.0361 219.232 46.9033C216.604 44.7705 215.195 42.3711 215.119 39.7051C215.424 33.9922 218.737 29.6504 225.136 26.7559C231.496 23.8613 238.809 22.4141 247.035 22.3379C255.262 22.2998 262.308 23.709 268.211 26.5273C272.667 29.2695 274.533 32.8496 273.771 37.2295C273.01 41.6475 270.077 44.0469 265.012 44.4658C259.908 44.8467 255.795 43.4756 252.596 40.2764C249.435 37.0771 248.939 33.2305 251.072 28.7744C243.455 28.9268 239.685 30.1455 239.723 32.3926C240.104 34.8301 241.741 37.001 244.75 38.9053C247.721 40.8096 251.225 42.7139 255.3 44.542C260.251 46.751 264.745 49.2266 268.782 52.0449C272.819 54.8252 274.99 58.291 275.333 62.4424C275.409 65.8701 273.391 69.4121 269.315 73.1064C265.202 76.8008 258.423 79.0098 248.939 79.8096C242.236 80.1143 236.676 79.8096 232.258 78.8955C227.84 77.9814 224.374 76.8008 221.822 75.3916C219.271 73.9824 217.48 72.6875 216.414 71.5449C215.386 70.4023 214.853 69.8311 214.853 69.8311C212.567 67.0889 211.539 64.5371 211.806 62.2139C212.072 59.8525 213.101 57.9482 214.929 56.4629ZM308.772 56.4629C311.324 54.5967 314.143 53.7588 317.266 53.9111C320.389 54.1016 323.093 55.2441 325.378 57.4531C327.32 59.9287 328.691 62.0234 329.491 63.6992C330.253 65.4131 330.824 67.2412 331.167 69.2217C331.51 71.2021 332.729 71.0498 334.861 68.8408C337.032 66.6318 336.156 63.623 332.348 59.8525C329.491 57.4531 326.14 55.168 322.293 53.0352C318.789 51.0928 315.704 49.0361 313.076 46.9033C310.448 44.7705 309.039 42.3711 308.963 39.7051C309.268 33.9922 312.581 29.6504 318.979 26.7559C325.34 23.8613 332.652 22.4141 340.879 22.3379C349.105 22.2998 356.151 23.709 362.055 26.5273C366.511 29.2695 368.377 32.8496 367.615 37.2295C366.854 41.6475 363.921 44.0469 358.855 44.4658C353.752 44.8467 349.639 43.4756 346.439 40.2764C343.278 37.0771 342.783 33.2305 344.916 28.7744C337.299 28.9268 333.528 30.1455 333.566 32.3926C333.947 34.8301 335.585 37.001 338.594 38.9053C341.564 40.8096 345.068 42.7139 349.144 44.542C354.095 46.751 358.589 49.2266 362.626 52.0449C366.663 54.8252 368.834 58.291 369.177 62.4424C369.253 65.8701 367.234 69.4121 363.159 73.1064C359.046 76.8008 352.267 79.0098 342.783 79.8096C336.08 80.1143 330.52 79.8096 326.102 78.8955C321.684 77.9814 318.218 76.8008 315.666 75.3916C313.114 73.9824 311.324 72.6875 310.258 71.5449C309.229 70.4023 308.696 69.8311 308.696 69.8311C306.411 67.0889 305.383 64.5371 305.649 62.2139C305.916 59.8525 306.944 57.9482 308.772 56.4629ZM383.345 29.3838C389.972 24.2803 399.074 21.957 407.834 22.2617C419.298 22.7949 434.837 26.4893 435.332 41.4951C435.751 54.0635 414.423 63.7373 403.721 53.835C404.444 61.7949 408.177 66.4033 414.994 67.5078C421.85 68.6504 428.134 66.5938 433.923 61.3379C434.494 60.6904 434.989 60.5381 435.37 60.8809C435.751 61.2236 435.789 61.8711 435.522 62.8232C433.352 68.3457 430.19 72.3447 426.039 74.8203C421.926 77.2959 417.47 78.7812 412.823 79.2764C408.139 79.7715 403.949 79.7715 400.255 79.3145C390.2 77.8291 382.85 73.9443 378.279 67.8125C373.671 61.7188 371.843 54.9775 372.719 47.7412C373.557 40.4668 377.137 34.335 383.345 29.3838ZM409.243 28.9268C408.938 28.9268 408.672 28.9648 408.367 29.0029C406.691 29.5361 405.396 30.9453 404.482 33.3066C403.53 35.6299 403.188 38.2578 403.416 41.3047C403.683 44.2754 404.444 46.6748 405.777 48.4648C407.072 50.3311 408.558 51.0166 410.157 50.6357C411.757 50.2168 413.052 48.8457 413.966 46.4463C414.956 44.0469 415.299 41.3428 415.032 38.3721C414.804 35.4014 414.004 33.002 412.709 31.1738C411.643 29.6885 410.5 28.9268 409.243 28.9268ZM473.799 80.0762C463.135 79.543 455.022 76.2676 449.424 70.2119C443.825 64.1562 441.121 57.6055 441.235 50.4834C441.35 43.3613 444.282 37.0391 449.995 31.5166C455.746 25.9941 464.049 23.0615 474.979 22.7568C485.872 22.4141 494.289 24.5469 500.192 29.1553C504.725 33.8779 505.981 38.1055 503.925 41.7998C501.868 45.4561 498.136 47.0557 492.689 46.5605C487.929 45.6465 484.92 43.7422 483.663 40.8096C482.444 37.877 482.559 35.1348 484.082 32.583C485.567 30.0312 488.081 28.8506 491.547 29.041C486.215 27.8223 481.111 29.1553 476.236 33.0781C471.323 36.9629 469.419 43.0947 470.562 51.4736C472.542 59.2812 477.341 63.9658 484.958 65.4893C492.613 67.0127 499.088 64.6133 504.382 58.291C504.839 57.5293 505.296 57.3008 505.753 57.6055C506.172 57.9102 506.324 58.5957 506.21 59.624C504.953 65.4512 502.478 69.8311 498.745 72.7637C495.013 75.6963 490.861 77.6768 486.291 78.667C481.721 79.6572 477.569 80.1143 473.799 80.0762ZM545.667 11.0264C545.438 12.0166 545.172 13.502 544.867 15.5205C544.562 17.5391 544.258 19.291 543.953 20.8145H549.552C550.352 20.8145 551.075 21.2715 551.646 22.2617C552.218 23.2139 552.522 24.0898 552.522 24.9277C552.522 25.7275 552.218 26.4512 551.646 27.0225C551.075 27.5938 550.352 27.8984 549.552 27.8984H543.229C543.191 28.127 543.153 28.3936 543.115 28.6982C543.077 28.9648 543.077 29.2314 543.039 29.4219C542.049 37.3057 542.201 46.3701 543.534 56.6152C544.601 64.6514 546.886 70.5166 550.352 74.1729V76.877C537.25 79.543 527.995 80.3428 522.625 79.3525C517.255 78.3242 514.246 75.9629 513.599 72.2686C512.951 68.5742 513.142 64.0039 514.17 58.5576C515.008 53.9111 515.427 48.96 515.465 43.7041C515.503 38.4482 514.17 33.1543 511.466 27.8984H509.6C508.762 27.8984 508.076 27.5938 507.505 27.0225C506.934 26.4512 506.629 25.7275 506.629 24.9277C506.629 24.0898 506.934 23.3281 507.505 22.6426C508.076 21.9189 508.762 21.5762 509.6 21.5762C512.38 21.5762 515.084 21.0049 517.712 19.9004C520.302 18.7959 522.93 17.4248 525.52 15.8252C528.262 14.1494 531.08 12.626 533.937 11.3691C536.793 10.0742 539.459 9.42676 541.858 9.38867C544.258 9.38867 545.553 9.92188 545.667 11.0264ZM577.202 4.39941C580.82 4.36133 584.096 5.08496 586.952 6.57031C589.999 9.0459 591.941 11.7119 592.779 14.5684C593.617 17.4248 593.846 20.2432 593.427 23.0615C592.97 25.8799 592.398 28.5078 591.637 30.9453C591.484 31.5928 591.294 32.2021 591.142 32.8115C589.885 37.4199 589.047 42.6758 588.628 48.6172C588.247 51.7783 588.59 56.082 589.732 61.6045C590.837 67.0889 593.084 71.4688 596.436 74.7061L596.474 77.4482C582.991 81.1045 569.661 81.1045 556.483 77.4482V74.7061C560.063 72.3447 562.272 68.3457 563.11 62.7471C563.948 57.1865 563.758 53.1875 562.577 50.75C561.396 45.5322 559.568 42.333 557.093 41.0762C556.674 40.7715 556.445 40.2764 556.445 39.6289C556.445 38.9434 556.712 38.334 557.169 37.8008C559.035 37.1152 561.663 36.582 565.015 36.2012C568.1 35.8584 571.337 35.2871 574.688 34.4873C578.04 33.6494 581.049 32.3164 583.639 30.4121C586.229 28.5078 587.98 25.6895 588.818 22.0332C587.028 24.8516 584.743 27.0225 581.925 28.6221C579.106 30.2217 576.06 30.8311 572.746 30.374C569.471 29.9551 566.233 28.127 563.072 24.8896C561.13 21.7666 560.559 18.6436 561.358 15.5967C562.12 12.5117 563.948 9.95996 566.729 7.86523C569.547 5.77051 573.051 4.62793 577.202 4.39941ZM631.627 22.4902C639.968 22.4902 646.709 24.0137 651.774 27.0986C656.878 30.1836 660.61 33.9541 662.972 38.334C665.371 42.7139 666.628 47.0557 666.78 51.2832C666.818 59.4336 663.391 66.251 656.535 71.7734C649.642 77.2959 641.377 80.0381 631.665 80.0381C621.991 80.0381 613.765 77.2959 607.062 71.7734C600.32 66.251 596.854 59.4336 596.588 51.2832C596.588 43.3232 599.939 36.582 606.643 31.0977C613.384 25.5752 621.687 22.7188 631.627 22.4902ZM628.542 29.9932C626.523 30.4502 625.076 32.7734 624.276 37.0391C623.477 41.3047 623.477 46.332 624.276 52.1973C625.114 58.0244 626.485 62.9375 628.466 66.8604C630.446 70.8213 632.427 72.6494 634.445 72.3447C636.464 71.9258 637.873 69.5645 638.673 65.3369C639.473 61.0713 639.473 56.0439 638.673 50.1787C637.835 44.3516 636.464 39.4385 634.483 35.5156C632.503 31.5547 630.522 29.7266 628.542 29.9932ZM666.171 27.5176C667.58 25.9941 670.36 24.7373 674.436 23.709C678.549 22.6807 682.891 22.3379 687.461 22.6807C692.069 22.9854 694.469 24.4326 694.735 26.9463C694.012 28.7744 693.06 31.5166 691.841 35.1348C690.66 38.7529 690.127 41.9141 690.279 44.6182C690.394 47.3223 690.736 48.8457 691.346 49.1504C691.193 40.8857 693.859 34.4492 699.306 29.8789C704.714 25.2705 711.074 22.9092 718.349 22.6807C725.623 22.4902 732.136 24.2803 737.849 28.0508C742.076 31.8594 743.409 36.2393 741.886 41.1904C740.4 46.1797 738.077 51.0928 734.954 55.9297C732.745 59.5098 731.107 62.709 730.003 65.5654C728.898 68.3838 729.241 70.5928 730.955 72.1543C732.897 73.5635 734.573 73.2969 735.944 71.3545C737.354 69.4121 738.268 66.8223 738.687 63.585C739.144 60.3477 738.915 57.4912 738.039 54.9775L749.122 49.6455C750.988 59.3955 749.465 66.8984 744.628 72.1924C739.753 77.4863 733.964 80.2285 727.185 80.3809C720.405 80.5713 715.073 77.8291 711.15 72.1924C709.475 69.3359 708.522 66.0225 708.294 62.252C708.027 58.4814 709.17 53.1113 711.646 46.1797C712.94 42.3711 713.017 39.4766 711.874 37.5723C710.77 35.668 709.17 34.6396 707.113 34.4873C705.057 34.335 703.229 34.9824 701.667 36.4297C698.658 39.7051 697.325 43.8184 697.554 48.8457C697.82 53.873 698.887 58.7861 700.791 63.585C702.695 68.3838 704.638 72.0781 706.618 74.668V77.4102V77.4482C706.504 77.4863 706.352 77.5244 706.237 77.5244C706.161 77.5625 706.047 77.5625 705.971 77.6006C700.067 79.2002 694.164 80.0381 688.337 80.1523C680.834 80.6094 673.521 79.6953 666.399 77.4482L666.361 74.7061C666.399 74.7061 666.399 74.7061 666.399 74.668C669.979 72.2305 672.15 67.8125 672.836 61.4521C673.521 55.0537 673.217 48.6934 671.846 42.333C670.513 35.9727 668.608 32.126 666.133 30.793C665.676 30.4883 665.447 29.9932 665.447 29.3457C665.447 28.6602 665.714 28.0508 666.171 27.5176ZM21.6807 111.399C25.2988 111.361 28.5742 112.085 31.4307 113.57C34.4775 116.046 36.4199 118.712 37.2578 121.568C38.0957 124.425 38.3242 127.243 37.9053 130.062C37.4482 132.88 36.877 135.508 36.1152 137.945C35.9629 138.593 35.7725 139.202 35.6201 139.812C34.3633 144.42 33.5254 149.676 33.1064 155.617C32.7256 158.778 33.0684 163.082 34.2109 168.604C35.3154 174.089 37.5625 178.469 40.9141 181.706L40.9521 184.448C27.4697 188.104 14.1396 188.104 0.961914 184.448V181.706C4.54199 179.345 6.75098 175.346 7.58887 169.747C8.42676 164.187 8.23633 160.188 7.05566 157.75C5.875 152.532 4.04688 149.333 1.57129 148.076C1.15234 147.771 0.923828 147.276 0.923828 146.629C0.923828 145.943 1.19043 145.334 1.64746 144.801C3.51367 144.115 6.1416 143.582 9.49316 143.201C12.5781 142.858 15.8154 142.287 19.167 141.487C22.5186 140.649 25.5273 139.316 28.1172 137.412C30.707 135.508 32.459 132.689 33.2969 129.033C31.5068 131.852 29.2217 134.022 26.4033 135.622C23.585 137.222 20.5381 137.831 17.2246 137.374C13.9492 136.955 10.7119 135.127 7.55078 131.89C5.6084 128.767 5.03711 125.644 5.83691 122.597C6.59863 119.512 8.42676 116.96 11.207 114.865C14.0254 112.771 17.5293 111.628 21.6807 111.399ZM44.9131 163.463C47.4648 161.597 50.2832 160.759 53.4062 160.911C56.5293 161.102 59.2334 162.244 61.5186 164.453C63.4609 166.929 64.832 169.023 65.6318 170.699C66.3936 172.413 66.9648 174.241 67.3076 176.222C67.6504 178.202 68.8691 178.05 71.002 175.841C73.1729 173.632 72.2969 170.623 68.4883 166.853C65.6318 164.453 62.2803 162.168 58.4336 160.035C54.9297 158.093 51.8447 156.036 49.2168 153.903C46.5889 151.771 45.1797 149.371 45.1035 146.705C45.4082 140.992 48.7217 136.65 55.1201 133.756C61.4805 130.861 68.793 129.414 77.0195 129.338C85.2461 129.3 92.292 130.709 98.1953 133.527C102.651 136.27 104.518 139.85 103.756 144.229C102.994 148.647 100.062 151.047 94.9961 151.466C89.8926 151.847 85.7793 150.476 82.5801 147.276C79.4189 144.077 78.9238 140.23 81.0566 135.774C73.4395 135.927 69.6689 137.146 69.707 139.393C70.0879 141.83 71.7256 144.001 74.7344 145.905C77.7051 147.81 81.209 149.714 85.2842 151.542C90.2354 153.751 94.7295 156.227 98.7666 159.045C102.804 161.825 104.975 165.291 105.317 169.442C105.394 172.87 103.375 176.412 99.2998 180.106C95.1865 183.801 88.4072 186.01 78.9238 186.81C72.2207 187.114 66.6602 186.81 62.2422 185.896C57.8242 184.981 54.3584 183.801 51.8066 182.392C49.2549 180.982 47.4648 179.688 46.3984 178.545C45.3701 177.402 44.8369 176.831 44.8369 176.831C42.5518 174.089 41.5234 171.537 41.79 169.214C42.0566 166.853 43.085 164.948 44.9131 163.463ZM171.206 154.36C167.816 156.722 165.036 159.464 162.903 162.511C160.732 165.596 159.78 168.186 160.047 170.242C160.275 172.299 161.456 172.908 163.627 172.032C165.76 171.156 167.664 169.252 169.378 166.396C171.054 163.501 171.663 159.502 171.206 154.36ZM199.618 156.912C200.113 164.491 200.913 169.938 202.056 173.327C202.627 174.774 203.465 175.688 204.493 175.993C205.521 176.336 206.474 176.146 207.312 175.498C208.111 174.812 208.606 173.898 208.759 172.756H211.234C210.663 176.488 208.149 179.84 203.731 182.849C199.313 185.819 194.21 187.19 188.459 186.962C182.67 186.695 178.899 184.601 177.109 180.678C175.319 176.717 175.586 171.042 177.985 163.653C178.023 163.082 177.985 162.739 177.909 162.625C177.833 162.549 177.681 162.777 177.452 163.349C173.758 173.289 169.568 179.954 164.884 183.382C160.161 186.848 154.372 187.762 147.479 186.238C140.585 184.677 136.776 181.097 135.977 175.46C135.177 169.823 136.586 165.177 140.28 161.521C143.975 157.864 149.916 155.351 158.104 153.979C166.293 152.57 170.939 149.257 172.082 143.925C172.729 140.307 171.511 137.717 168.388 136.117C165.265 134.518 161.075 134.327 155.819 135.546C159.285 135.355 161.875 136.536 163.513 139.088C165.15 141.64 165.455 144.382 164.389 147.276C163.284 150.171 160.39 152.075 155.667 152.989C150.259 153.484 146.412 151.923 144.165 148.229C141.918 144.572 142.908 140.383 147.174 135.66C152.849 131.052 160.618 129.071 170.559 129.604C180.499 130.176 187.697 132.994 192.191 138.021C196.647 143.049 199.123 149.333 199.618 156.912ZM251.872 139.431C249.701 139.773 248.063 141.83 246.997 145.562C245.931 149.295 245.74 153.941 246.388 159.464C247.035 165.024 248.368 169.519 250.387 172.87C252.367 176.26 254.424 177.859 256.595 177.631C258.766 177.364 260.365 175.384 261.432 171.689C262.498 167.957 262.688 163.311 262.003 157.75C261.355 152.228 260.061 147.733 258.118 144.306C256.214 140.916 254.119 139.278 251.872 139.431ZM213.291 119.969C212.872 119.664 212.644 119.169 212.644 118.521C212.644 117.874 212.872 117.265 213.367 116.693C214.015 115.817 215.919 114.827 219.08 113.685C222.241 112.58 225.859 111.552 229.896 110.676C233.934 109.8 237.59 109.305 240.865 109.229C241.779 109.19 242.922 109.267 244.255 109.533C245.588 109.8 246.616 110.562 247.302 111.742C247.035 112.771 246.692 113.875 246.312 115.056C245.588 117.493 245.017 120.502 244.56 124.082C244.141 127.624 244.141 131.509 244.636 135.736C252.443 130.519 259.908 128.767 267.03 130.557C274.152 132.347 279.561 135.47 283.255 140.002C286.949 144.534 289.158 149.866 289.882 155.922C290.72 165.405 288.473 172.756 283.103 177.974C277.732 183.229 271.562 186.086 264.555 186.543C257.509 187 252.024 185.667 248.102 182.506C244.179 179.383 241.322 173.289 239.532 164.263C239.456 163.539 239.228 163.12 238.885 163.082C238.542 163.044 238.39 163.387 238.428 164.148C238.466 164.948 238.542 166.662 238.694 169.252C238.809 171.88 238.961 174.774 239.113 177.936C239.228 181.097 238.199 183.344 235.952 184.639C233.705 185.972 230.087 186.733 225.098 186.924C220.108 187.114 215.957 186.238 212.72 184.296L212.682 181.63C216.224 177.821 218.28 171.689 218.813 163.196C219.347 154.741 219.423 146.02 219.042 136.993C218.89 132.994 218.204 129.338 217.023 126.024C215.805 122.673 214.586 120.654 213.291 119.969ZM326.635 129.49C334.976 129.49 341.717 131.014 346.782 134.099C351.886 137.184 355.618 140.954 357.979 145.334C360.379 149.714 361.636 154.056 361.788 158.283C361.826 166.434 358.398 173.251 351.543 178.773C344.649 184.296 336.385 187.038 326.673 187.038C316.999 187.038 308.772 184.296 302.069 178.773C295.328 173.251 291.862 166.434 291.596 158.283C291.596 150.323 294.947 143.582 301.65 138.098C308.392 132.575 316.694 129.719 326.635 129.49ZM323.55 136.993C321.531 137.45 320.084 139.773 319.284 144.039C318.484 148.305 318.484 153.332 319.284 159.197C320.122 165.024 321.493 169.938 323.474 173.86C325.454 177.821 327.435 179.649 329.453 179.345C331.472 178.926 332.881 176.564 333.681 172.337C334.48 168.071 334.48 163.044 333.681 157.179C332.843 151.352 331.472 146.438 329.491 142.516C327.511 138.555 325.53 136.727 323.55 136.993ZM383.726 129.757C390.391 129.681 395.608 132.423 399.455 137.945C401.131 140.84 402.083 144.153 402.35 147.924C402.578 151.694 401.436 157.064 398.96 163.996C397.894 167.957 398.236 170.585 400.026 171.88C401.816 173.175 404.178 172.261 407.034 169.214C409.891 166.129 411.719 163.082 412.48 159.997C413.28 156.874 413.242 153.18 412.404 148.838C411.604 144.458 410.005 141.754 407.644 140.649C407.263 140.307 407.072 139.812 407.148 139.164C407.187 138.517 407.377 137.907 407.72 137.336C408.405 136.422 410.462 135.355 413.89 134.175C417.317 132.956 420.974 131.928 424.858 131.052C428.743 130.176 432.285 129.757 435.522 129.795C438.722 129.871 440.474 130.709 440.778 132.309C440.702 132.728 440.588 133.223 440.436 133.756C439.331 138.25 438.227 144.42 437.16 152.266C436.056 160.111 435.561 165.977 435.637 169.823C435.713 173.708 436.094 176.107 436.741 177.098C437.389 178.126 438.417 178.126 439.864 177.174C441.273 176.222 442.111 174.851 442.378 173.061C442.987 173.061 443.559 173.061 444.016 173.061C444.511 173.061 444.739 173.061 444.739 173.061C444.663 176.412 442.797 179.573 439.217 182.582C435.599 185.553 431.638 187.114 427.372 187.267C425.201 187.305 423.106 187 421.088 186.391C419.031 185.781 417.355 184.448 415.946 182.392C414.575 180.335 414.156 177.974 414.766 175.27C415.375 172.527 416.099 170.052 416.975 167.843C417.508 166.319 417.851 165.215 418.003 164.529C418.117 163.806 417.812 163.729 417.051 164.301C414.385 171.804 410.424 177.402 405.206 181.059C399.95 184.753 394.39 186.619 388.524 186.733C382.621 186.848 377.365 185.286 372.757 182.125C368.491 178.354 367.158 173.975 368.682 168.985C370.205 163.996 372.528 159.083 375.651 154.246C377.86 150.666 379.498 147.467 380.603 144.61C381.669 141.792 381.364 139.583 379.65 137.983C377.708 136.612 376.032 136.879 374.623 138.821C373.252 140.764 372.338 143.354 371.881 146.591C371.424 149.79 371.652 152.685 372.566 155.198L361.445 160.53C360.036 154.018 360.341 148.457 362.359 143.887C364.34 139.316 367.311 135.812 371.233 133.413C375.156 131.014 379.308 129.795 383.726 129.757ZM484.729 118.026C484.501 119.017 484.234 120.502 483.93 122.521C483.625 124.539 483.32 126.291 483.016 127.814H488.614C489.414 127.814 490.138 128.271 490.709 129.262C491.28 130.214 491.585 131.09 491.585 131.928C491.585 132.728 491.28 133.451 490.709 134.022C490.138 134.594 489.414 134.898 488.614 134.898H482.292C482.254 135.127 482.216 135.394 482.178 135.698C482.14 135.965 482.14 136.231 482.102 136.422C481.111 144.306 481.264 153.37 482.597 163.615C483.663 171.651 485.948 177.517 489.414 181.173V183.877C476.312 186.543 467.058 187.343 461.688 186.353C456.317 185.324 453.309 182.963 452.661 179.269C452.014 175.574 452.204 171.004 453.232 165.558C454.07 160.911 454.489 155.96 454.527 150.704C454.565 145.448 453.232 140.154 450.528 134.898H448.662C447.824 134.898 447.139 134.594 446.567 134.022C445.996 133.451 445.691 132.728 445.691 131.928C445.691 131.09 445.996 130.328 446.567 129.643C447.139 128.919 447.824 128.576 448.662 128.576C451.442 128.576 454.146 128.005 456.774 126.9C459.364 125.796 461.992 124.425 464.582 122.825C467.324 121.149 470.143 119.626 472.999 118.369C475.855 117.074 478.521 116.427 480.921 116.389C483.32 116.389 484.615 116.922 484.729 118.026ZM42.7803 216.152C52.6064 216.152 60.5283 218.247 66.5078 222.437C72.4873 226.626 76.8672 231.691 79.6475 237.671C82.4658 243.65 83.9512 249.516 84.1035 255.267C84.1797 266.35 80.1807 275.604 72.0684 283.146C63.9941 290.648 54.2441 294.381 42.8564 294.381C31.4307 294.381 21.7949 290.648 13.873 283.146C5.98926 275.643 1.87598 266.35 1.57129 255.267C1.57129 244.45 5.53223 235.31 13.416 227.807C21.2998 220.342 31.0879 216.419 42.7803 216.152ZM42.6279 226.131C40.1904 226.359 38.1719 229.292 36.5342 234.967C34.8965 240.642 34.0586 247.573 34.0586 255.762C34.0586 263.95 34.8965 270.92 36.5723 276.709C38.248 282.498 40.2666 285.393 42.6279 285.393C45.0273 285.164 47.0459 282.231 48.6836 276.557C50.3213 270.882 51.1592 263.95 51.1592 255.762C51.1592 247.573 50.3213 240.604 48.6455 234.814C46.9697 229.025 44.9512 226.131 42.6279 226.131ZM110.421 236.757C117.086 236.681 122.304 239.423 126.15 244.945C127.826 247.84 128.778 251.153 129.045 254.924C129.273 258.694 128.131 264.064 125.655 270.996C124.589 274.957 124.932 277.585 126.722 278.88C128.512 280.175 130.873 279.261 133.729 276.214C136.586 273.129 138.414 270.082 139.176 266.997C139.976 263.874 139.938 260.18 139.1 255.838C138.3 251.458 136.7 248.754 134.339 247.649C133.958 247.307 133.768 246.812 133.844 246.164C133.882 245.517 134.072 244.907 134.415 244.336C135.101 243.422 137.157 242.355 140.585 241.175C144.013 239.956 147.669 238.928 151.554 238.052C155.438 237.176 158.98 236.757 162.218 236.795C165.417 236.871 167.169 237.709 167.474 239.309C167.397 239.728 167.283 240.223 167.131 240.756C166.026 245.25 164.922 251.42 163.855 259.266C162.751 267.111 162.256 272.977 162.332 276.823C162.408 280.708 162.789 283.107 163.437 284.098C164.084 285.126 165.112 285.126 166.56 284.174C167.969 283.222 168.807 281.851 169.073 280.061C169.683 280.061 170.254 280.061 170.711 280.061C171.206 280.061 171.435 280.061 171.435 280.061C171.358 283.412 169.492 286.573 165.912 289.582C162.294 292.553 158.333 294.114 154.067 294.267C151.896 294.305 149.802 294 147.783 293.391C145.727 292.781 144.051 291.448 142.642 289.392C141.271 287.335 140.852 284.974 141.461 282.27C142.07 279.527 142.794 277.052 143.67 274.843C144.203 273.319 144.546 272.215 144.698 271.529C144.812 270.806 144.508 270.729 143.746 271.301C141.08 278.804 137.119 284.402 131.901 288.059C126.646 291.753 121.085 293.619 115.22 293.733C109.316 293.848 104.061 292.286 99.4521 289.125C95.1865 285.354 93.8535 280.975 95.377 275.985C96.9004 270.996 99.2236 266.083 102.347 261.246C104.556 257.666 106.193 254.467 107.298 251.61C108.364 248.792 108.06 246.583 106.346 244.983C104.403 243.612 102.728 243.879 101.318 245.821C99.9473 247.764 99.0332 250.354 98.5762 253.591C98.1191 256.79 98.3477 259.685 99.2617 262.198L88.1406 267.53C86.7314 261.018 87.0361 255.457 89.0547 250.887C91.0352 246.316 94.0059 242.812 97.9287 240.413C101.852 238.014 106.003 236.795 110.421 236.757ZM198.019 262.312C199.009 257.095 200.456 252.677 202.437 248.982C204.417 245.288 207.197 242.203 210.854 239.728C214.472 237.29 219.728 236.109 226.545 236.186C229.706 236.528 232.448 237.595 234.81 239.423C237.171 241.251 238.466 243.803 238.656 247.154C238.656 252.601 237.057 256.485 233.819 258.847C230.582 261.208 227.116 262.084 223.46 261.551C219.766 261.018 217.214 259.113 215.843 255.876C214.853 254.162 214.319 251.648 214.243 248.411C208.226 251.534 205.141 257.323 204.988 265.74C204.836 274.157 207.73 281.736 213.672 288.478V291.296C211.615 292.553 207.54 293.391 201.446 293.81C195.353 294.229 189.373 294.19 183.47 293.771C177.604 293.353 173.948 292.515 172.501 291.296L172.463 288.478C176.233 286.23 178.557 281.812 179.395 275.3C180.271 268.749 180.08 262.389 178.823 256.143C177.566 249.896 175.7 246.088 173.148 244.755C172.387 244.45 172.044 243.993 172.12 243.308C172.196 242.622 172.539 241.975 173.187 241.365C174.596 240.108 177.262 238.928 181.299 237.785C185.336 236.643 189.602 236.147 194.172 236.338C198.704 236.528 201.142 238.014 201.446 240.756C200.799 242.432 199.961 244.983 198.895 248.335C197.866 251.725 197.333 254.962 197.295 258.047C197.257 261.17 197.523 262.579 198.019 262.312ZM315.285 241.518C317.57 239.499 323.74 237.938 333.719 236.909C343.697 235.881 348.991 237.062 349.601 240.451C347.696 245.593 347.772 251.572 349.867 258.428C351.924 265.245 354.323 271.605 357.065 277.471C360.265 267.759 362.397 260.18 363.464 254.733C364.492 249.287 364.149 245.517 362.436 243.384C360.722 240.032 363.045 237.938 369.367 237.1C375.728 236.3 379.231 236.985 379.917 239.194C379.955 239.918 379.384 240.794 378.317 241.822C377.213 242.851 375.842 245.44 374.204 249.516C372.566 253.629 370.51 260.027 367.996 268.749C365.521 277.471 363.959 283.298 363.312 286.192C363.959 286.916 364.568 287.602 365.14 288.211L365.292 290.991C357.827 292.896 351.2 293.848 345.487 293.848C345.411 293.848 345.335 293.848 345.259 293.848C345.183 293.848 345.106 293.848 344.992 293.848C344.954 293.848 344.878 293.848 344.802 293.848C338.137 293.848 331.738 292.934 325.568 291.067V288.211C328.539 286.459 329.948 283.679 329.796 279.794C329.644 275.947 328.311 270.615 325.759 263.836C323.359 269.854 321.646 274.69 320.617 278.385C319.551 282.117 319.132 284.707 319.322 286.192C319.97 286.916 320.541 287.602 321.15 288.211V290.991C313.838 292.896 306.83 293.848 300.127 293.848C300.089 293.848 300.013 293.848 299.975 293.848C299.86 293.848 299.784 293.848 299.67 293.848C299.594 293.848 299.518 293.848 299.441 293.848C292.7 293.848 286.264 292.934 280.094 291.029H280.132L280.056 288.211C282.988 286.497 284.436 283.679 284.283 279.832C284.131 275.985 283.141 271.682 281.236 266.883C279.294 262.084 277.39 257.628 275.523 253.553C273.619 249.439 271.715 246.964 269.887 246.126C269.468 245.783 269.315 245.288 269.43 244.603C269.544 243.917 269.887 243.308 270.458 242.736C272.096 240.604 276.209 238.966 282.798 237.938C289.387 236.871 294.452 236.604 298.07 237.1C302.107 236.985 304.164 237.823 304.278 239.651C302.031 248.982 304.85 261.132 312.771 276.176C315.514 267.378 317.723 259.075 319.322 251.229C318.522 248.106 316.961 245.974 314.676 244.869C314.295 244.564 314.143 244.069 314.257 243.384C314.371 242.698 314.714 242.089 315.285 241.518ZM410.5 236.49C418.841 236.49 425.582 238.014 430.647 241.099C435.751 244.184 439.483 247.954 441.845 252.334C444.244 256.714 445.501 261.056 445.653 265.283C445.691 273.434 442.264 280.251 435.408 285.773C428.515 291.296 420.25 294.038 410.538 294.038C400.864 294.038 392.638 291.296 385.935 285.773C379.193 280.251 375.728 273.434 375.461 265.283C375.461 257.323 378.812 250.582 385.516 245.098C392.257 239.575 400.56 236.719 410.5 236.49ZM407.415 243.993C405.396 244.45 403.949 246.773 403.149 251.039C402.35 255.305 402.35 260.332 403.149 266.197C403.987 272.024 405.358 276.938 407.339 280.86C409.319 284.821 411.3 286.649 413.318 286.345C415.337 285.926 416.746 283.564 417.546 279.337C418.346 275.071 418.346 270.044 417.546 264.179C416.708 258.352 415.337 253.438 413.356 249.516C411.376 245.555 409.396 243.727 407.415 243.993ZM471.323 262.312C472.313 257.095 473.761 252.677 475.741 248.982C477.722 245.288 480.502 242.203 484.158 239.728C487.776 237.29 493.032 236.109 499.85 236.186C503.011 236.528 505.753 237.595 508.114 239.423C510.476 241.251 511.771 243.803 511.961 247.154C511.961 252.601 510.361 256.485 507.124 258.847C503.887 261.208 500.421 262.084 496.765 261.551C493.07 261.018 490.519 259.113 489.147 255.876C488.157 254.162 487.624 251.648 487.548 248.411C481.53 251.534 478.445 257.323 478.293 265.74C478.141 274.157 481.035 281.736 486.977 288.478V291.296C484.92 292.553 480.845 293.391 474.751 293.81C468.657 294.229 462.678 294.19 456.774 293.771C450.909 293.353 447.253 292.515 445.806 291.296L445.768 288.478C449.538 286.23 451.861 281.812 452.699 275.3C453.575 268.749 453.385 262.389 452.128 256.143C450.871 249.896 449.005 246.088 446.453 244.755C445.691 244.45 445.349 243.993 445.425 243.308C445.501 242.622 445.844 241.975 446.491 241.365C447.9 240.108 450.566 238.928 454.604 237.785C458.641 236.643 462.906 236.147 467.477 236.338C472.009 236.528 474.446 238.014 474.751 240.756C474.104 242.432 473.266 244.983 472.199 248.335C471.171 251.725 470.638 254.962 470.6 258.047C470.562 261.17 470.828 262.579 471.323 262.312ZM555.798 237.938C551.57 240.337 548.257 246.012 545.819 254.962C550.504 250.582 555.341 247.954 560.33 247.04C565.319 246.126 569.737 246.164 573.622 247.192C577.507 248.221 580.135 250.087 581.544 252.715C582.915 255.381 583.105 258.161 582.077 261.056C581.049 263.95 579.525 267.111 577.469 270.539C575.564 273.7 574.193 276.595 573.317 279.185C572.441 281.812 572.937 283.907 574.727 285.545C576.897 286.992 578.878 286.23 580.668 283.222C582.458 280.251 582.801 275.338 581.772 268.444L592.817 263.15C594.379 273.396 593.008 280.937 588.628 285.812C584.248 290.725 578.878 293.276 572.594 293.505C566.31 293.733 561.054 291.981 556.902 288.249C554.312 285.773 552.637 282.727 551.875 279.07C551.075 275.452 551.646 271.377 553.589 266.921C555.303 264.369 555.455 262.312 554.084 260.751C552.675 259.189 550.618 259.151 547.914 260.599C545.172 262.046 543.763 264.141 543.725 266.845C543.687 269.549 544.372 272.9 545.781 276.899C547.19 280.898 548.752 284.517 550.39 287.716L550.58 287.906C550.732 288.021 550.885 288.173 550.999 288.287V290.991C545.21 292.705 538.697 293.619 531.499 293.733C524.263 293.848 517.331 292.857 510.666 290.763L510.628 288.021H510.666V287.982C511.847 287.335 512.913 286.345 513.941 285.05C516.341 280.213 517.75 273.396 518.093 264.598C518.436 255.8 517.979 247.573 516.798 239.918C515.617 232.263 513.903 227.807 511.694 226.512C511.275 226.207 511.047 225.712 511.047 225.064C511.047 224.417 511.275 223.808 511.732 223.236C512.38 222.36 514.322 221.37 517.483 220.228C520.645 219.085 524.225 218.057 528.3 217.181C532.337 216.305 535.993 215.848 539.269 215.771C540.906 215.81 541.935 216.305 542.354 217.257C542.772 218.209 542.963 219.199 542.925 220.189C542.963 220.38 542.963 220.532 542.963 220.685C542.925 225.521 542.468 230.016 541.592 234.129C540.716 238.242 539.726 242.127 538.621 245.745C537.288 250.011 536.298 254.124 535.65 258.123C535.003 262.122 535.193 266.159 536.26 270.311C536.031 267.111 536.793 262.16 538.507 255.419C540.221 248.678 542.887 242.47 546.467 236.757C550.009 231.082 554.084 227.235 558.654 225.255C560.673 224.15 562.729 223.579 564.824 223.579C569.242 223.503 572.518 224.988 574.65 227.959C576.821 230.968 576.974 234.319 575.107 238.052C573.241 241.822 569.585 243.422 564.177 242.927C559.873 242.089 557.093 240.413 555.798 237.938ZM599.749 270.463C602.301 268.597 605.119 267.759 608.242 267.911C611.365 268.102 614.069 269.244 616.354 271.453C618.297 273.929 619.668 276.023 620.468 277.699C621.229 279.413 621.801 281.241 622.144 283.222C622.486 285.202 623.705 285.05 625.838 282.841C628.009 280.632 627.133 277.623 623.324 273.853C620.468 271.453 617.116 269.168 613.27 267.035C609.766 265.093 606.681 263.036 604.053 260.903C601.425 258.771 600.016 256.371 599.939 253.705C600.244 247.992 603.558 243.65 609.956 240.756C616.316 237.861 623.629 236.414 631.855 236.338C640.082 236.3 647.128 237.709 653.031 240.527C657.487 243.27 659.354 246.85 658.592 251.229C657.83 255.647 654.897 258.047 649.832 258.466C644.729 258.847 640.615 257.476 637.416 254.276C634.255 251.077 633.76 247.23 635.893 242.774C628.275 242.927 624.505 244.146 624.543 246.393C624.924 248.83 626.562 251.001 629.57 252.905C632.541 254.81 636.045 256.714 640.12 258.542C645.071 260.751 649.565 263.227 653.603 266.045C657.64 268.825 659.811 272.291 660.153 276.442C660.229 279.87 658.211 283.412 654.136 287.106C650.022 290.801 643.243 293.01 633.76 293.81C627.057 294.114 621.496 293.81 617.078 292.896C612.66 291.981 609.194 290.801 606.643 289.392C604.091 287.982 602.301 286.688 601.234 285.545C600.206 284.402 599.673 283.831 599.673 283.831C597.388 281.089 596.359 278.537 596.626 276.214C596.893 273.853 597.921 271.948 599.749 270.463ZM675.388 294.609C668.913 294.609 663.848 289.658 663.848 283.222C663.848 276.899 668.913 271.682 675.388 271.682C681.558 271.682 686.775 276.899 686.775 283.222C686.775 289.658 681.558 294.609 675.388 294.609Z" fill="url(#paint0_linear_201_37)"/>
<path d="M694.848 179.302C685.597 185.231 672.559 184.539 664.095 177.465C655.838 170.571 652.568 158.168 656.486 148.113C657.483 145.547 659.145 143.02 661.551 141.583C663.466 140.439 666.021 140.285 667.764 141.826C670.64 144.381 670.462 149.667 667.934 152.386C664.078 156.535 657.252 155.915 652.443 154.09C647.901 152.323 643.888 149.42 640.789 145.659C634.538 138.181 631.611 127.733 633.93 118.178C634.211 117.016 634.57 115.875 635.006 114.762C635.396 113.778 633.929 112.994 633.54 113.984C629.593 124.024 631.619 135.672 637.748 144.406C640.776 148.801 644.88 152.346 649.67 154.701C654.866 157.184 661.608 158.401 666.849 155.338C667.921 154.733 668.86 153.917 669.609 152.94C670.358 151.962 670.902 150.844 671.208 149.651C671.775 147.463 671.59 145.149 670.684 143.079C670.263 142.082 669.606 141.203 668.77 140.516C667.934 139.83 666.943 139.358 665.884 139.14C662.862 138.605 660.068 140.158 658.087 142.34C654.119 146.721 652.88 153.313 653.27 159.056C653.651 164.928 655.822 170.541 659.492 175.14C667.085 184.48 680.785 187.479 691.793 182.775C693.162 182.193 694.479 181.498 695.732 180.697C695.909 180.575 696.031 180.388 696.073 180.178C696.115 179.967 696.073 179.749 695.957 179.568C695.841 179.387 695.66 179.259 695.451 179.209C695.242 179.16 695.022 179.193 694.837 179.302L694.848 179.302Z" fill="black"/>
<defs>
<linearGradient id="paint0_linear_201_37" x1="-54.4999" y1="454.287" x2="727.669" y2="558.462" gradientUnits="userSpaceOnUse">
<stop/>
<stop offset="0.489583" stop-color="#80CAFF"/>
<stop offset="1" stop-color="#B027FB"/>
</linearGradient>
</defs>
</svg>
